/* XPM */
static const char *collectible[] = {
/* columns rows colors chars-per-pixel */
"64 64 41 1 ",
"  c #D9AD00",
". c #DDB100",
"X c #E2B500",
"o c #E7B800",
"O c #EBBC00",
"+ c #F0C000",
"@ c #F4C300",
"# c #F5C400",
"$ c #F9C700",
"% c #FFCC00",
"& c #F7C90F",
"* c #FFCF0F",
"= c #FFD21F",
"- c #FFD52F",
"; c #E2C13F",
": c #E5C43F",
"> c #E9C73F",
", c #EDC93F",
"< c #F0CC3F",
"1 c #F3CF3F",
"2 c #F6D23F",
"3 c #FFD83F",
"4 c #FFDB4F",
"5 c #F8D95F",
"6 c #FFDF5F",
"7 c #FFE26F",
"8 c #F9E17F",
"9 c #FFE57F",
"0 c #FFE88F",
"q c #FCEA9F",
"w c #FFEB9F",
"e c #FDEDAF",
"r c #FFEFAF",
"t c #FFF2BF",
"y c #FDF4CF",
"u c #FFF5CF",
"i c #FEF8DF",
"p c #FFF8DF",
"a c #FFFBEF",
"s c white",
"d c None",
/* pixels */
"dddddddddddddddddddddddddddddddddddddddddddddddddddddddddddddddd",
"dddddddddddddddddddddddddddddddddddddddddddddddddddddddddddddddd",
"dddddddddddddddddddddddddddddddddddddddddddddddddddddddddddddddd",
"dddddddddddddddddddddddddddddddddddddddddddddddddddddddddddddddd",
"dddddddddddddddddddddddddddddddddddddddddddddddddddddddddddddddd",
"dddddddddddddddddddddddddddddddddddddddddddddddddddddddddddddddd",
"dddddddddddddddddddddddddddddddddddddddddddddddddddddddddddddddd",
"dddddddddddddddddddddddddddddddddddddddddddddddddddddddddddddddd",
"dddddddddddddddddddddddddddddddddddddddddddddddddddddddddddddddd",
"dddddddddddddddddddddddddddddddddddddddddddddddddddddddddddddddd",
"dddddddddddddddddddddddddddddddddddddddddddddddddddddddddddddddd",
"dddddddddddddddddddddddddddddddddddddddddddddddddddddddddddddddd",
"dddddddddddddddddddddddddddddddddddddddddddddddddddddddddddddddd",
"dddddddddddddddddddddddddddddddddddddddddddddddddddddddddddddddd",
"dddddddddddddddddddddddddddddddddddddddddddddddddddddddddddddddd",
"dddddddddddddddddddddddddddddddddddddddddddddddddddddddddddddddd",
"dddddddddddddddddddddddddddddddddddddddddddddddddddddddddddddddd",
"dddddddddddddddddddddddddddddddddddddddddddddddddddddddddddddddd",
"dddddddddddddddddddssssssddddddddddddddddddddddddddddddddddddddd",
"dddddddddddddddddddddddddddsdddddddddddddddddddddddddddddddddddd",
"dddddddddddddddsddddddddddddsddddddddddddddddddddddddddddddddddd",
"ddddddddddddddsdddu733336rdddsdddddddddddddddddddddddddddddddddd",
"dddddddddddddsddd7%%%%%%%%-dddsddddddddddddddddddddddddddddddddd",
"ddddddddddddddddw%%%%%%%%%%6dddsdddddddddddddddddddddddddddddddd",
"ddddddddddddsddw%%%%%%%%%%%%6ddddddddddddddddddddddddddddddddddd",
"dddddddddddsddu%%%%%%%%%%%%%%9ddsddddddddddddddddddddddddddddddd",
"dddddddddddddd3%%%%%%%%%%%%%%%pdddddddddddddddddsssddddddddddddd",
"dddddddddddddu%%%%%%%%%%%%%%%%7ddddddddddddddddddddsdddddddddddd",
"ddddddddddsdd7%%%%%%4dd0%%%%%%=dddddddddddddddddddddsddddddddddd",
"ddddddddddsdd3%%%%%*addd3%%%%%%%%%%%%%%%%%%%%%%%=4uddddddddddddd",
"ddddddddddddd%%%%%%7ddddr%%%%%%%%%%%%%%%%%%%%%%%%%6ddsdddddddddd",
"ddddddddddddd%%%%%%tddddd%%%%%%%%%%%%%%%%%%%%%%%%%%ddddddddddddd",
"ddddddddddddd%%%%%%tddddd%%%%%%%%%%%%%%%%%%%%%%%%%%ddddddddddddd",
"ddddddddddddd%%%%%%tddddp%%%%%%%%%%%%%%%%%%%%%%%%%*ddddddddddddd",
"ddddddddddddd*%%%%%7ddddw%%%%%%%%%%%%%%%%%%%%%%%%%6ddsdddddddddd",
"ddddddddddsdd3%%%%%=addd3%%%%%%333333&##########&6dddddddddddddd",
"ddddddddddsdd9%%%%%%7ddr%%%%%%=dddddd;          ;dddsddddddddddd",
"dddddddddddddu%%%%%%%-3%%%%%%%7dddddd:..........:ddsdddddddddddd",
"dddddddddddddd=%%%%%%%%%%%%%%%pddssdd>XXXXXXXXXX>ddsdddddddddddd",
"dddddddddddsddt%%%%%%%%%%%%%%7ddsdsdd,oooooooooo,ddsdddddddddddd",
"ddddddddddddddd6%%%%%%%%%%%%-addddsdd1OOOOOOOOOO1ddsdddddddddddd",
"ddddddddddddsddd4%%%%%%%%%%=addsddsdd1++++++++++1ddsdddddddddddd",
"dddddddddddddsdda7%%%%%%%%-pddsdddsdd2@@@5885@@@2ddsdddddddddddd",
"ddddddddddddddsdddt4%%%%-wddddddddsddr$$$uddp$$$wddsdddddddddddd",
"dddddddddddddddsddddddddddddsddddddddddddddddddddddddddddddddddd",
"dddddddddddddddddsdddddddddsdddddddsddddddddddddddsddddddddddddd",
"ddddddddddddddddddssdddddsddddddddddsddddddddddddsdddddddddddddd",
"dddddddddddddddddddddddddddddddddddddddddddddddddddddddddddddddd",
"dddddddddddddddddddddddddddddddddddddddddddddddddddddddddddddddd",
"dddddddddddddddddddddddddddddddddddddddddddddddddddddddddddddddd",
"dddddddddddddddddddddddddddddddddddddddddddddddddddddddddddddddd",
"dddddddddddddddddddddddddddddddddddddddddddddddddddddddddddddddd",
"dddddddddddddddddddddddddddddddddddddddddddddddddddddddddddddddd",
"dddddddddddddddddddddddddddddddddddddddddddddddddddddddddddddddd",
"dddddddddddddddddddddddddddddddddddddddddddddddddddddddddddddddd",
"dddddddddddddddddddddddddddddddddddddddddddddddddddddddddddddddd",
"dddddddddddddddddddddddddddddddddddddddddddddddddddddddddddddddd",
"dddddddddddddddddddddddddddddddddddddddddddddddddddddddddddddddd",
"dddddddddddddddddddddddddddddddddddddddddddddddddddddddddddddddd",
"dddddddddddddddddddddddddddddddddddddddddddddddddddddddddddddddd",
"dddddddddddddddddddddddddddddddddddddddddddddddddddddddddddddddd",
"dddddddddddddddddddddddddddddddddddddddddddddddddddddddddddddddd",
"dddddddddddddddddddddddddddddddddddddddddddddddddddddddddddddddd",
"dddddddddddddddddddddddddddddddddddddddddddddddddddddddddddddddd"
};
