/* XPM */
static const char *exit_close[] = {
/* columns rows colors chars-per-pixel */
"64 64 54 1 ",
"  c #BFAE3E",
". c #DAB30A",
"X c #CFB11F",
"o c #D5B214",
"O c #D9B81F",
"+ c #DBBA1F",
"@ c #E0B400",
"# c #E1B500",
"$ c #E3B700",
"% c #E5B800",
"& c #E7BA00",
"* c #E9BB00",
"= c #EBBD00",
"- c #EDBE00",
"; c #CAB029",
": c #C4AF33",
"> c #C6B033",
", c #EFC000",
"< c #F1C100",
"1 c #F3C300",
"2 c #F5C400",
"3 c #F7C600",
"4 c #F9C700",
"5 c #FBC900",
"6 c #FDCA00",
"7 c #FFCC00",
"8 c #B9AD48",
"9 c #AFAB5D",
"0 c #B4AC53",
"q c #9EA87C",
"w c #A9AA67",
"e c #A4A972",
"r c #99A786",
"t c #8EA59B",
"y c #93A691",
"u c #89A4A6",
"i c #8AA5A7",
"p c #8BA7A9",
"a c #8EABAD",
"s c #90ACAE",
"d c #91AEB0",
"f c #92AFB2",
"g c #93B0B2",
"h c #94B2B4",
"j c #95B3B5",
"k c #97B5B7",
"l c #99B8BB",
"z c #9AB9BB",
"x c #9BBABC",
"c c #9DBCBE",
"v c #9EBEC0",
"b c #A0C0C1",
"n c #A0C0C2",
"m c None",
/* pixels */
"mmmmmmmmmmmmmmmmmmmmmmmmbbbbbbbbbbbbbbbbmmmmmmmmmmmmmmmmmmmmmmmm",
"mmmmmmmmmmmmmmmmmmmbbbbbbbbbbbbbbbbbbbbbbbbbmmmmmmmmmmmmmmmmmmmm",
"mmmmmmmmmmmmmmmmmbbbbbxzkhhhhaaaaaaaahhhzvbbbbbmmmmmmmmmmmmmmmmm",
"mmmmmmmmmmmmmmmbbbbkspuuuuuuuuuuuuuuuuuuuupgxbbbbmmmmmmmmmmmmmmm",
"mmmmmmmmmmmmmbbbvksuuuuuuuuuuuuuuuuuuuuuuuuuupgvbbbmmmmmmmmmmmmm",
"mmmmmmmmmmmmbbcduuuuuuuuuuuuuuuuuuuuuuuuuuuuuuuugvbbmmmmmmmmmmmm",
"mmmmmmmmmmbbbhuuuuuuuuuuuuuuuuuuuuuuuuuuuuuuuuuuuuhbbmmmmmmmmmmm",
"mmmmmmmmmbbvsuuuuuuuuuuuuuuuuuuuuuuuuuuuuuuuuuuuuuuhbbmmmmmmmmmm",
"mmmmmmmmbbzpuuuuuuuuuuuuuuuuuuuuuuuuuuuuuuuuuuuuuuuuavbbmmmmmmmm",
"mmmmmmmbbkuuuuuuuuuuuuuuuuuuuuuuuuuuuuuuuuuuuuuuuuuuuuxbbmmmmmmm",
"mmmmmmbbkuuuuuuuuuuuuutq9;;;;@@@@@@@;00etuuuuuuuuuuuuuukbbmmmmmm",
"mmmmmmbkuuuuuuuuuuuur o@@@@@@@@@@@@@@@@@@Xwtuuuuuuuuuuuukbmmmmmm",
"mmmmmbkuuuuuuuuuuuu;@@@@%,,,,3333333,%%@@@@.0tuuuuuuuuuuukbmmmmm",
"mmmmbxuuuuuuuuuuueo@@=37777777777777777741@@@oruuuuuuuuuuuxbmmmm",
"mmmmvpuuuuuuuuuu0@@,677777777777777777777773%@@9uuuuuuuuuupvmmmm",
"mmmbsuuuuuuuuuu8@@1777777777777777777777777773@@0uuuuuuuuuusbmmm",
"mmmzuuuuuuuuuu @%677777777777777777777777777775%@wuuuuuuuuuuzmmm",
"mmbpuuuuuuuuu9@*77777777777777777777777777777777*@quuuuuuuuupbmm",
"mmkuuuuuuuuuy@=7777777777777777777777777777777776%.tuuuuuuuuukmm",
"mbpuuuuuuuuu;%777777777777777777777777777777777776%;uuuuuuuuupbm",
"mzuuuuuuuuuq@57777777777741,,%%%%%%*337777777777774@quuuuuuuuuzm",
"mduuuuuuuuu;177777777761@@@@@@@@@@@@@@@%17777777777,:uuuuuuuuudm",
"muuuuuuuuut@7777777774%@@@@@@@@@@@@@@@@@@%6777777776@yuuuuuuuuum",
"zuuuuuuuuuw1777777776@@@@@@@@@@@@@@@@@@@@@@67777777719uuuuuuuuuz",
"duuuuuuuuu>777777776%@@@@@@@@@@@@@@@@@@@@@@%777777776 uuuuuuuuud",
"duuuuuuuuu+77777777*@@@@@@@@@@@@@@@@@@@@@@@@-77777777+uuuuuuuuud",
"auuuuuuuuu177777775@@@@@@@@@@@@@@@@@@@@@@@@@@577777771uuuuuuuuua",
"uuuuuuuuuu37777777-@@@@@@@@@@@@@@@@@@@@@@@@@@,77777773uuuuuuuuuu",
"uuuuuuuuuu77777777@@@@@@@@@@@@@@@@@@@@@@@@@@@%77777776uuuuuuuuuu",
"uuuuuuuuuu77777777@@@@@@@@@@@@@@@@@@@@@@@@@@@@77777777uuuuuuuuuu",
"uuuuuuuuuu77777777@@@@@@@@@@@@@@@@@@@@@@@@@@@@77777777uuuuuuuuuu",
"uuuuuuuuuu77777777@@@@@@@@@@@@@@@@@@@@@@@@@@@@77777777uuuuuuuuuu",
"uuuuuuuuuu77777777@@@@@@@@@@@@@@@@@@@@@@@@@@@@77777777uuuuuuuuuu",
"uuuuuuuuuu77777777@@@@@@@@@@@@@@@@@@@@@@@@@@@@77777777uuuuuuuuuu",
"uuuuuuuuuu77777777@@@@@@@@@@@@@@@@@@@@@@@@@@@@77777777uuuuuuuuuu",
"uuuuuuuuuu77777777@@@@@@@@@@@@@@@@@@@@@@@@@@@@77777777uuuuuuuuuu",
"uuuuuuuuuu77777777@@@@@@@@@@@@@@@@@@@@@@@@@@@@77777777uuuuuuuuuu",
"uuuuuuuuuu77777777@@@@@@@@@@@@@@@@@@@@@@@@@@@@77777777uuuuuuuuuu",
"uuuuuuuuuu77777777@@@@@@@@@@@@@@@@@@@@@@@@@@@@77777777uuuuuuuuuu",
"uuuuuuuuuu77777777@@@@@@@@@@@@@@@@@@@@@@@@@@@@77777777uuuuuuuuuu",
"uuuuuuuuuu77777777@@@@@@@@@@@@@@@@@@@@@@@@@@@@77777777uuuuuuuuuu",
"uuuuuuuuuu77777777@@@@@@@@@@@@@@@@@@@@@@@@@@@@77777777uuuuuuuuuu",
"uuuuuuuuuu77777777@@@@@@@@@@@@@@@@@@@@@@@@@@@@77777777uuuuuuuuuu",
"uuuuuuuuuu77777777@@@@@@@@@@@@@@@@@@@@@@@@@@@@77777777uuuuuuuuuu",
"uuuuuuuuuu77777777@@@@@@@@@@@@@@@@@@@@@@@@@@@@77777777uuuuuuuuuu",
"uuuuuuuuuu77777777@@@@@@@@@@@@@@@@@@@@@@@@@@@@77777777uuuuuuuuuu",
"uuuuuuuuuu77777777@@@@@@@@@@@@@@@@@@@@@@@@@@@@77777777uuuuuuuuuu",
"uuuuuuuuuu77777777@@@@@@@@@@@@@@@@@@@@@@@@@@@@77777777uuuuuuuuuu",
"uuuuuuuuuu77777777@@@@@@@@@@@@@@@@@@@@@@@@@@@@77777777uuuuuuuuuu",
"uuuuuuuuuu77777777@@@@@@@@@@@@@@@@@@@@@@@@@@@@77777777uuuuuuuuuu",
"uuuuuuuuuu77777777@@@@@@@@@@@@@@@@@@@@@@@@@@@@77777777uuuuuuuuuu",
"uuuuuuuuuu77777777@@@@@@@@@@@@@@@@@@@@@@@@@@@@77777777uuuuuuuuuu",
"uuuuuuuuuu77777777@@@@@@@@@@@@@@@@@@@@@@@@@@@@77777777uuuuuuuuuu",
"uuuuuuuuuu77777777@@@@@@@@@@@@@@@@@@@@@@@@@@@@77777777uuuuuuuuuu",
"uuuuuuuuuu77777777@@@@@@@@@@@@@@@@@@@@@@@@@@@@77777777uuuuuuuuuu",
"uuuuuuuuuu77777777@@@@@@@@@@@@@@@@@@@@@@@@@@@@77777777uuuuuuuuuu",
"uuuuuuuuuu77777777777777777777777777777777777777777777uuuuuuuuuu",
"uuuuuuuuuu77777777777777777777777777777777777777777777uuuuuuuuuu",
"uuuuuuuuuu77777777777777777777777777777777777777777777uuuuuuuuuu",
"uuuuuuuuuu77777777777777777777777777777777777777777777uuuuuuuuuu",
"uuuuuuuuuu77777777777777777777777777777777777777777777uuuuuuuuuu",
"uuuuuuuuuu77777777777777777777777777777777777777777777uuuuuuuuuu",
"uuuuuuuuuu77777777777777777777777777777777777777777777uuuuuuuuuu",
"uuuuuuuuuu77777777777777777777777777777777777777777777uuuuuuuuuu"
};
