/* XPM */
static const char *player_walk[] = {
/* columns rows colors chars-per-pixel */
"64 64 119 2 ",
"   c #363F12",
".  c #3B4415",
"X  c #3E4817",
"o  c #424C19",
"O  c #46511B",
"+  c #49541D",
"@  c #4E5A20",
"#  c #505B21",
"$  c #546023",
"%  c #5A6726",
"&  c #5D6A28",
"*  c #616F2A",
"=  c #63712B",
"-  c #6A792F",
";  c #6C655E",
":  c #7C6457",
">  c #7D6C56",
",  c #74645A",
"<  c #786259",
"1  c #756A59",
"2  c #5F6163",
"3  c #626262",
"4  c #B8643D",
"5  c #DD662D",
"6  c #D16632",
"7  c #D86630",
"8  c #E1662C",
"9  c #E96628",
"0  c #F76722",
"q  c #F86722",
"w  c #9D6349",
"e  c #8F774D",
"r  c #90774D",
"t  c #957A4A",
"y  c #997C48",
"u  c #836753",
"i  c #806E54",
"p  c #857252",
"a  c #897350",
"s  c #A76344",
"d  c #A96344",
"f  c #A17F45",
"g  c #738334",
"h  c #7B8C39",
"j  c #82943D",
"k  c #86983F",
"l  c #AF853F",
"z  c #B1873D",
"x  c #B5893C",
"c  c #BE8D38",
"v  c #BEB33F",
"b  c #E99416",
"n  c #EE9916",
"m  c #F19C17",
"M  c #F49F18",
"N  c #F5A017",
"B  c #F6A319",
"V  c #FAA619",
"C  c #F7AD1F",
"Z  c #FFAB1A",
"A  c #D1962F",
"S  c #DB9A2A",
"D  c #C28E36",
"F  c #C69134",
"G  c #CB9332",
"H  c #E49E26",
"J  c #DAB02F",
"K  c #C3B33C",
"L  c #CAB93E",
"P  c #D6B535",
"I  c #DBB432",
"U  c #EBA223",
"Y  c #E1AF2A",
"T  c #F2A520",
"R  c #F4AC20",
"E  c #E2B32E",
"W  c #8A9C41",
"Q  c #A28044",
"!  c #8FA144",
"~  c #92A545",
"^  c #96A947",
"/  c #97AB48",
"(  c #9AAE4A",
")  c #9EB24C",
"_  c #A1B74F",
"`  c #A3B84F",
"'  c #ADB84A",
"]  c #B2B545",
"[  c #BBB441",
"{  c #B2BE4E",
"}  c #B6BF4D",
"|  c #B8BE4B",
" . c #A4B950",
".. c #A5BA50",
"X. c #A5BB50",
"o. c #A7BC51",
"O. c #A7BD51",
"+. c #A8BD51",
"@. c #A8BD52",
"#. c #A8BE52",
"$. c #A9BE52",
"%. c #A9BF53",
"&. c #AABF53",
"*. c #B3C04F",
"=. c #B4C04F",
"-. c #AAC053",
";. c #ABC153",
":. c #AEC153",
">. c #AAC154",
",. c #ABC154",
"<. c #ABC254",
"1. c #ABC255",
"2. c #ACC254",
"3. c #ACC354",
"4. c #ADC354",
"5. c #ADC355",
"6. c #ADC455",
"7. c None",
"8. c black",
/* pixels */
"7.7.7.7.7.7.7.7.7.7.7.7.7.7.7.7.7.7.7.7.7.7.7.7.7.7.7.7.7.7.7.7.7.7.7.7.7.7.7.7.7.7.7.7.7.7.7.7.7.7.7.7.7.7.7.7.7.7.7.7.7.7.7.7.",
"7.7.7.7.7.7.7.7.7.7.7.7.7.7.7.7.7.7.7.7.7.7.7.7.7.7.7.7.7.7.7.7.7.7.7.7.7.7.7.7.7.7.7.7.7.7.7.7.7.7.7.7.7.7.7.7.7.7.7.7.7.7.7.7.",
"7.7.7.7.7.7.7.7.7.7.7.7.7.7.7.7.7.7.7.7.7.7.7.7.7.7.7.7.7.7.7.7.7.7.7.7.7.7.7.7.7.7.7.7.7.7.7.7.7.7.7.7.7.7.7.7.7.7.7.7.7.7.7.7.",
"7.7.7.7.7.7.7.7.7.7.7.7.7.7.7.7.7.7.7.7.7.7.7.7.7.7.7.7.7.7.7.7.7.7.7.7.7.7.7.7.7.7.7.7.7.7.7.7.7.7.7.7.7.7.7.7.7.7.7.7.7.7.7.7.",
"7.7.7.7.7.7.7.7.7.7.7.7.7.7.7.7.7.7.7.7.7.7.7.7.7.7.7.7.7.7.7.7.7.7.7.7.7.7.7.7.7.7.7.7.7.7.7.7.7.7.7.7.7.7.7.7.7.7.7.7.7.7.7.7.",
"7.7.7.7.7.7.7.7.7.7.7.7.7.7.7.7.7.7.7.7.7.7.7.7.7.7.7.7.7.7.7.7.7.7.7.7.7.7.7.7.7.7.7.7.7.7.7.7.7.7.7.7.7.7.7.7.7.7.7.7.7.7.7.7.",
"7.7.7.7.7.7.7.7.7.7.7.7.7.7.7.7.7.7.7.7.7.7.7.7.7.7.7.7.7.7.7.7.7.7.7.7.7.7.7.7.7.7.7.7.7.7.7.7.7.7.7.7.7.7.7.7.7.7.7.7.7.7.7.7.",
"7.7.7.7.7.7.7.7.7.7.7.7.7.7.7.7.7.7.7.7.7.7.7.7.7.7.7.7.7.7.7.7.7.7.7.7.7.7.7.7.7.7.7.7.7.7.7.7.7.7.7.7.7.7.7.7.7.7.7.7.7.7.7.7.",
"7.7.7.7.7.7.7.7.7.7.7.7.7.7.7.7.7.7.7.7.7.7.7.7.7.7.7.7.7.7.7.7.7.7.7.7.7.7.7.7.7.7.7.7.7.7.7.7.7.7.7.7.7.7.7.7.7.7.7.7.7.7.7.7.",
"7.7.7.7.7.7.7.7.7.7.7.7.7.7.7.7.7.7.7.7.7.7.7.7.7.7.7.7.7.7.7.7.7.7.7.7.7.7.7.7.7.7.7.7.7.7.7.7.7.7.7.7.7.7.7.7.7.7.7.7.7.7.7.7.",
"7.7.7.7.7.7.7.7.7.7.7.7.7.7.7.7.7.7.7.7.7.7.7.7.7.7.7.7.7.7.7.7.7.7.7.7.7.7.7.7.7.7.7.7.7.7.7.7.7.7.7.7.7.7.7.7.7.7.7.7.7.7.7.7.",
"7.7.7.7.7.7.7.7.7.7.7.7.7.7.7.7.7.7.7.7.7.7.7.7.7.7.7.7.7.7.7.7.7.7.7.7.7.7.7.7.7.7.7.7.7.7.7.7.7.7.7.7.7.7.7.7.7.7.7.7.7.7.7.7.",
"7.7.7.7.7.7.7.7.7.7.7.7.7.7.7.7.7.7.7.7.7.7.7.7.7.7.7.7.7.7.7.7.7.7.7.7.7.7.7.7.7.7.7.7.7.7.7.7.7.7.7.7.7.7.7.7.7.7.7.7.7.7.7.7.",
"7.7.7.7.7.7.7.7.7.7.7.7.7.7.7.7.7.7.7.7.7.7.7.7.7.7.7.7.7.7.7.7.7.7.7.7.7.7.7.7.7.7.7.7.7.7.7.7.7.7.7.7.7.7.7.7.7.7.7.7.7.7.7.7.",
"7.7.7.7.7.7.7.7.7.7.7.7.7.7.7.7.7.7.7.7.7.7.7.7.7.7.7.7.7.7.7.7.7.7.7.7.7.7.7.7.7.7.7.7.7.7.7.7.7.7.7.7.7.7.7.7.7.7.7.7.7.7.7.7.",
"7.7.7.7.7.7.7.7.7.7.7.7.7.7.7.7.7.7.7.7.7.7.7.7.7.7.7.7.7.7.7.7.7.7.7.7.7.7.7.7.7.7.7.7.7.7.7.7.7.7.7.7.7.7.7.7.7.7.7.7.7.7.7.7.",
"7.7.7.7.7.7.7.7.7.7.7.7.7.7.7.7.7.7.7.7.7.7.7.7.7.7.7.7.7.7.7.7.7.7.7.7.7.7.7.7.7.7.7.7.7.7.7.7.7.7.7.7.7.7.7.7.7.7.7.7.7.7.7.7.",
"7.7.7.7.7.7.7.7.7.7.7.7.7.7.7.7.7.7.7.7.7.7.7.7.7.7.7.7.7.7.7.7.7.7.7.7.7.7.7.7.7.7.7.7.7.7.7.7.7.7.7.7.7.7.7.7.7.7.7.7.7.7.7.7.",
"7.7.7.7.7.7.7.7.7.7.7.7.7.7.7.7.7.7.7.7.7.7.7.7.7.7.7.7.7.7.7.7.7.7.7.7.7.7.7.7.7.7.7.7.7.7.7.7.7.7.7.7.7.7.7.7.7.7.7.7.7.7.7.7.",
"7.7.7.7.7.7.7.7.7.7.7.7.7.7.7.7.7.b b b b b m V Z Z Z Z Z Z Z Z Z Z Z Z Z Z Z Z Z Z Z Z Z Z Z Z 7.7.7.7.7.7.7.7.7.7.7.7.7.7.7.7.",
"7.7.7.7.7.7.7.7.7.7.7.7.7.7.7.7.b b b b b m Z Z Z Z Z C C C C C C C C C C C C C C C C C C Z Z Z Z 7.7.7.7.7.7.7.7.7.7.7.7.7.7.7.",
"7.7.7.7.7.7.7.7.7.7.7.7.7.7.7.b b b b b n V Z Z Y K v [ [ [ [ [ [ [ [ [ [ [ [ [ [ [ [ [ [ K P Z Z 7.7.7.7.7.7.7.7.7.7.7.7.7.7.7.",
"7.7.7.7.7.7.7.7.7.7.7.7.7.7.7.b b b b b m Z Z C ] _ _ _ _ _ _ _ _ _ _ _ _ _ _ _ _ _ _ _ _ _ ` Y Z Z 7.7.7.7.7.7.7.7.7.7.7.7.7.7.",
"7.7.7.7.7.7.7.7.7.7.7.7.7.7.7.b b b b b m Z Z R ' o.$.$.$.$.$.$.$.$.$.$.$.$.$.$.$.$.$.$.$.$...J Z Z 7.7.7.7.7.7.7.7.7.7.7.7.7.7.",
"7.7.7.7.7.7.7.7.7.7.7.7.7.7.7.b b b b b m Z Z C { <.2.2.2.2.2.2.2.2.2.2.2.2.2.2.2.2.2.2.2.2.<.I Z Z 7.7.7.7.7.7.7.7.7.7.7.7.7.7.",
"7.7.7.7.7.7.7.7.7.7.7.7.7.7.7.b b b b b m Z Z C =.2.2.$.( ! / $.2.2.2.2.2.2.2.2.) ! ^ $.2.2.<.P Z Z 7.7.7.7.7.7.7.7.7.7.7.7.7.7.",
"7.7.7.7.7.7.7.7.7.7.7.7.7.7.7.b b b b b m Z Z C =.2.-.h + O * ` 2.2.2.2.2.2.2.<.h O + - ` 2.<.P Z Z 7.7.7.7.7.7.7.7.7.7.7.7.7.7.",
"7.7.7.7.7.7.7.7.7.7.7.7.7.7.7.b b b b b m Z Z C =.2.$.W W ! / $.2.2.2.2.2.2.2.2.) ! ! j _ 2.<.P Z Z 7.7.7.7.7.7.7.7.7.7.7.7.7.7.",
"7.7.7.7.7.7.7.7.7.7.7.7.7.7.7.b b b b b m Z Z C =.2.2.2._ W ~ -.2.2.2.2.2.2.2.2.-.( ~ ` 2.2.<.P Z Z 7.7.7.7.7.7.7.7.7.7.7.7.7.7.",
"7.7.7.7.7.7.7.7.7.7.7.7.7.7.7.b b b b b m Z Z C =.2.2.( % . O ~ 2.2.2.2.2.2.2.-.h + o - $.2.<.P Z Z 7.7.7.7.7.7.7.7.7.7.7.7.7.7.",
"7.7.7.7.7.7.7.7.7.7.7.7.7.7.7.b b b b b m Z Z R =.2.2.j .     g 2.2.2.2.2.2.2...$     o _ 2.<.P Z Z 7.7.7.7.7.7.7.7.7.7.7.7.7.7.",
"7.7.7.7.7.7.7.7.7.7.7.7.7.7.7.b b b b b m Z Z R =.2.2./ @ . O W 6.$.$.$.$.$.$.-.g . . = o.2.<.I Z Z 7.7.7.7.7.7.7.7.7.7.7.7.7.7.",
"7.7.7.7.7.7.7.7.7.7.7.7.7.7.7.b b b b b m Z Z C =.2.2.2.( j ^ -.! - = = = = - k ` W k ` 2.2.<.E Z Z 7.7.7.7.7.7.7.7.7.7.7.7.7.7.",
"7.7.7.7.7.7.7.7.7.7.7.7.7.7.7.b b b b b m Z Z C =.2.2.2.2.2.2.-.g             & o.2.2.2.2.2.<.E Z Z 7.7.7.7.7.7.7.7.7.7.7.7.7.7.",
"7.7.7.7.7.7.7.7.7.7.7.7.7.7.7.b b b b b m Z Z C =.2.2.2.2.2.2.2.( @     .   O W 2.2.2.2.2.2.<.E Z Z 7.7.7.7.7.7.7.7.7.7.7.7.7.7.",
"7.7.7.7.7.7.7.7.7.7.7.7.7.7.7.b b b b b m Z Z C =.2.2.2.2.2.2.2.2.W $ X X # W -.2.2.2.2.2.2.<.E Z Z 7.7.7.7.7.7.7.7.7.7.7.7.7.7.",
"7.7.7.7.7.7.7.7.7.7.7.7.7.7.7.b b b b b m Z Z C =.2.2.2.2.2.2.2.2.2._ ~ ~ _ 2.2.2.2.2.2.2.2.<.E Z Z 7.7.7.7.7.7.7.7.7.7.7.7.7.7.",
"7.7.7.7.7.7.7.7.7.7.7.7.7.7.7.b b b b b m Z Z R *.2.2.2.2.2.2.2.2.2.2.2.2.2.2.2.2.2.2.2.2.2.<.E Z Z 7.7.7.7.7.7.7.7.7.7.7.7.7.7.",
"7.7.7.7.7.7.7.7.7.7.7.7.7.7.7.b b b b b m Z Z C | <.2.2.2.2.2.2.2.2.2.2.2.2.2.2.2.2.2.2.2.<.:.E Z Z 7.7.7.7.7.7.7.7.7.7.7.7.7.7.",
"7.7.7.7.7.7.7.7.7.7.7.7.7.B m n b b b b m Z Z Z I } =.=.=.=.=.=.=.=.=.=.=.=.=.=.=.=.=.=.=.=.L C Z Z 7.7.7.7.7.7.7.7.7.7.7.7.7.7.",
"7.7.7.7.7.7.7.7.7.7.7.Z V B m m n b b b m Z Z Z Z C C C R R R R R C C C C C C C C C C C C C C Z Z Z 7.7.7.7.7.7.7.7.7.7.7.7.7.7.",
"7.7.7.7.7.7.7.7.7.7.Z Z V B m n b b b b m Z Z Z Z Z Z Z Z Z Z Z Z Z Z Z Z Z Z Z Z Z Z Z Z Z Z Z Z V m 7.7.7.7.7.7.7.7.7.7.7.7.7.",
"7.7.7.7.7.7.7.7.7.Z Z Z V B m b b b b b m Z Z Z Z Z Z S F F S Z Z Z Z Z Z B S F F S Z Z Z Z Z Z Z Z N M 7.7.7.7.7.7.7.7.7.7.7.7.",
"7.7.7.7.7.7.7.7.Z Z Z Z V B n b b b b b m Z Z Z Z Z B r 2 2 e Z Z Z Z Z Z x 1 ; ; 1 D Z Z Z Z Z Z Z B B V Z Z 7.7.7.7.7.7.7.7.7.",
"7.7.7.7.7.7.7.7.Z Z Z Z V B 7.b b b b b m Z Z Z Z Z Z y 2 3 a U Z Z Z Z S > 4 9 9 d > S Z Z Z Z Z Z V Z Z Z Z Z Z 7.7.7.7.7.7.7.",
"7.7.7.7.7.7.7.Z Z Z Z Z Z V 7.b b b b b m Z Z Z T S S t 3 3 1 Q f Q B Z F : 9 0 0 8 , Q S U Z Z Z Z Z Z Z Z Z Z Z Z 7.7.7.7.7.7.",
"7.7.7.7.7.7.Z Z Z Z Z Z Z Z 7.b b b b b m Z Z Z z ; ; 3 3 3 3 3 2 ; U Z G : 8 0 0 5 < : u > D Z Z Z Z Z Z Z Z Z Z Z 7.7.7.7.7.7.",
"7.7.7.7.7.7.Z Z Z Z Z Z Z Z 7.b b b b b m Z Z Z l 3 3 3 3 3 3 3 2 ; S Z U a w 5 8 w w 5 5 s i H Z Z Z Z Z Z Z Z Z Z 7.7.7.7.7.7.",
"7.7.7.7.7.7.Z Z Z Z Z Z Z Z 7.b b b b b m Z Z Z D 2 3 3 3 3 3 1 p t H Z Z A a > , ; 6 0 0 9 : F Z Z Z Z Z Z Z Z Z Z 7.7.7.7.7.7.",
"7.7.7.7.7.7.Z Z Z Z Z Z Z Z 7.b b b b b m Z Z Z H z c Q 3 3 ; D U B Z Z Z Z U S x , 8 0 0 9 : F Z Z Z Z Z Z Z Z Z 7.7.7.7.7.7.7.",
"7.7.7.7.7.7.7.Z Z Z Z Z Z 7.7.b b b b b m Z Z Z Z Z Z A ; 3 3 G Z Z Z Z Z Z Z Z U a w 7 7 w > H Z Z 7.Z Z Z Z Z 7.7.7.7.7.7.7.7.",
"7.7.7.7.7.7.7.7.Z Z Z Z Z 7.7.b b b b b m Z Z Z Z Z Z S 1 ; ; G Z Z Z Z Z Z Z Z Z A > : : > F Z Z Z 7.7.7.7.7.7.7.7.7.7.7.7.7.7.",
"7.7.7.7.7.7.7.7.7.7.7.7.7.7.7.b b b b b n Z Z Z Z Z Z Z S S S B Z Z Z Z Z Z Z Z Z Z H F F H Z Z Z Z 7.7.7.7.7.7.7.7.7.7.7.7.7.7.",
"7.7.7.7.7.7.7.7.7.7.7.7.7.7.7.7.b b b b b B Z Z Z Z Z Z Z Z Z Z Z Z Z Z Z Z Z Z Z Z Z Z Z Z Z Z Z 7.7.7.7.7.7.7.7.7.7.7.7.7.7.7.",
"7.7.7.7.7.7.7.7.7.7.7.7.7.7.7.7.7.b b b b b B Z Z Z Z Z Z Z Z Z Z Z Z Z Z Z Z V M Z Z Z Z Z Z Z Z 7.7.7.7.7.7.7.7.7.7.7.7.7.7.7.",
"7.7.7.7.7.7.7.7.7.7.7.7.7.7.7.7.7.7.7.7.7.m V Z Z Z Z 7.7.7.7.7.7.7.7.7.7.7.7.m B Z Z Z Z Z V V V B 7.7.7.7.7.7.7.7.7.7.7.7.7.7.",
"7.7.7.7.7.7.7.7.7.7.7.7.7.7.7.7.7.7.7.n m V Z Z Z Z 7.7.7.7.7.7.7.7.7.7.7.7.7.B Z Z Z Z V m b b b b 7.7.7.7.7.7.7.7.7.7.7.7.7.7.",
"7.7.7.7.7.7.7.7.7.7.7.7.7.7.7.7.7.7.n m B Z Z Z Z Z 7.7.7.7.7.7.7.7.7.7.7.7.7.Z Z Z Z V n b b b b b 7.7.7.7.7.7.7.7.7.7.7.7.7.7.",
"7.7.7.7.7.7.7.7.7.7.7.7.7.7.7.7.7.m m V Z Z Z Z Z Z 7.7.7.7.7.7.7.7.7.7.7.7.7.Z Z Z B n b b b b b b 7.7.7.7.7.7.7.7.7.7.7.7.7.7.",
"7.7.7.7.7.7.7.7.7.7.7.7.7.7.7.7.7.M B Z Z Z Z Z Z Z Z 7.7.7.7.7.7.7.7.7.7.7.7.Z Z B b b b b b b b 7.7.7.7.7.7.7.7.7.7.7.7.7.7.7.",
"7.7.7.7.7.7.7.7.7.7.7.7.7.7.7.7.7.7.V Z Z Z Z Z Z Z Z 7.7.7.7.7.7.7.7.7.7.7.7.Z B b b b b b b b 7.7.7.7.7.7.7.7.7.7.7.7.7.7.7.7.",
"7.7.7.7.7.7.7.7.7.7.7.7.7.7.7.7.7.7.7.Z Z Z Z Z Z Z Z 7.7.7.7.7.7.7.7.7.7.7.7.V n b b b b b b 7.7.7.7.7.7.7.7.7.7.7.7.7.7.7.7.7.",
"7.7.7.7.7.7.7.7.7.7.7.7.7.7.7.7.7.7.7.7.7.Z Z Z Z Z Z 7.7.7.7.7.7.7.7.7.7.7.7.7.b b b b b 7.7.7.7.7.7.7.7.7.7.7.7.7.7.7.7.7.7.7.",
"7.7.7.7.7.7.7.7.7.7.7.7.7.7.7.7.7.7.7.7.7.7.7.Z Z Z 7.7.7.7.7.7.7.7.7.7.7.7.7.7.b b b 7.7.7.7.7.7.7.7.7.7.7.7.7.7.7.7.7.7.7.7.7."
};
