/* XPM */
static const char *wall[] = {
/* columns rows colors chars-per-pixel */
"64 64 6 1 ",
"  c #D96315",
". c #DB6415",
"X c #DC6415",
"o c #E26716",
"O c #E66916",
"+ c #E86A17",
/* pixels */
"                                                                ",
"                                        XXoOO+++++++OOoX.       ",
"                                     XoO+++++++++++++++++Oo     ",
"                                  Xo++++++++++++++++++++++++OX  ",
"                                XO++++++++++++++++++++++++++++OX",
"OX                            XO++++++++++++++++++++++++++++++++",
"++OX                         O++++++++++++++++++++++++++++++++++",
"+++++oX                   XO++++++++++++++++++++++++++++++++++++",
"++++++++oX.           XoO+++++++++++++++++++++++++++++++++++++++",
"++++++++++++OOOOOOOOO+++++++++++++++++++++++++++++++++++++++++++",
"++++++++++++++++++++++++++++++++++++++++++ooooooooooooo+++++++++",
"++++++++++++++++++++++++++++++++++++++OX.               .XoO++++",
"+++++++++++++++++++++++++++++++++++OX                       XO++",
"++++++++++++++++++++++++++++++++Oo.                           XO",
"XoO+++++++++++++++++++++++++++oX          .XXoooooooXX          ",
"   XO+++++++++++++++++++++++o          XOO+++++++++++++OoX      ",
"      XoO+++++++++++++++OoX         oO+++++++++++++++++++++oX   ",
"          XooOOOOOOOooX          XO++++++++++++++++++++++++++Oo ",
"X                              XO++++++++++++++++++++++++++++++O",
"+OX                          XO+++++++++++++++++++++++++++++++++",
"+++Oo                      Xo+++++++++++++++++++++++++++++++++++",
"++++++Oo.               XoO+++++++++++++++++++++++++++++++++++++",
"+++++++++OooXXXXXXXXXoO+++++++++++++++++++++++++++++++++++++++++",
"++++++++++++++++++++++++++++++++++++++++++++++++++++++++++++++++",
"++++++++++++++++++++++++++++++++++++++++++++++++++++++++++++++++",
"++++++++++++++++++++++++++++++++++++++++++++++++++++++++++++++++",
"++++++++++++++++++++++++++++++++++++++++++++++++++++++++++++++++",
"++++++++++++++++++++++++++++++++++++++++++++++++++++++++++++++++",
"++++++++++++++++++++++++++++++++++++++++++++++++++++++++++++++++",
"++++++++++++++++++++++++++++++++++++++++++++++++++++++++++++++++",
"++++++++++++++++++++++++++++++++++++++++++++++++++++++++++++++++",
"++++++++++++++++++++++++++++++++++++++++++++++++++++++++++++++++",
"++++++++++++++++++++++++++++++++++++++++++++++++++++++++++++++++",
"++++++++++++++++++++++++++++++++++++++++++++++++++++++++++++++++",
"++++++++++++++++++++++++++++++++++++++++++++++++++++++++++++++++",
"++++++++++++++++++++++++++++++++++++++++++++++++++++++++++++++++",
"++++++++++++++++++++++++++++++++++++++++++++++++++++++++++++++++",
"++++++++++++++++++++++++++++++++++++++++++++++++++++++++++++++++",
"++++++++++++++++++++++++++++++++++++++++++++++++++++++++++++++++",
"+++++++++++++++++++++++++++++++++++++++Ooo             ooO++++++",
"++++++++++++++++++++++++++++++++++++OoX                   .oO+++",
"++++++++++++++++++++++++++++++++++oX                         XO+",
"OO+++++++++++++++++++++++++++++OX                              X",
"  oO+++++++++++++++++++++++++o                                  ",
"    XoO+++++++++++++++++++Oo                                    ",
"       .XoO+++++++++++OoX                                       ",
"            .XXXXXXX.                                           ",
"                                        XXoOO+++++++OOoX.       ",
"                                     XoO+++++++++++++++++Oo     ",
"                                  Xo++++++++++++++++++++++++OX  ",
"                                XO++++++++++++++++++++++++++++OX",
"OX                            XO++++++++++++++++++++++++++++++++",
"++OX                         O++++++++++++++++++++++++++++++++++",
"+++++oX                   XO++++++++++++++++++++++++++++++++++++",
"++++++++oX.           XoO+++++++++++++++++++++++++++++++++++++++",
"++++++++++++OOOOOOOOO+++++++++++++++++++++++++++++++++++++++++++",
"++++++++++++++++++++++++++++++++++++++++++ooooooooooooo+++++++++",
"++++++++++++++++++++++++++++++++++++++OX.               .XoO++++",
"+++++++++++++++++++++++++++++++++++OX                       XO++",
"++++++++++++++++++++++++++++++++Oo.                           XO",
"XoO+++++++++++++++++++++++++++oX                                ",
"   XO+++++++++++++++++++++++o                                   ",
"      XoO+++++++++++++++OoX                                     ",
"          XooOOOOOOOooX                                         "
};
